<svg height="448pt" viewBox="0 -48 448.91733 448" width="448pt" xmlns="http://www.w3.org/2000/svg"  fill="#3f2f3a"><path d="m320.917969 312.292969c0-11.199219-8.800781-32.28125-17.441407-50.175781l-1.757812-3.609376c-.511719-1.03125-1.007812-2.03125-1.511719-3.03125-1.121093-2.230468-2.226562-4.40625-3.289062-6.398437-1.066407 2.023437-2.167969 4.199219-3.289063 6.398437-.503906 1-1 2-1.511718 3.03125l-1.761719 3.609376c-8.636719 17.894531-17.4375 38.976562-17.4375 50.175781 0 13.253906 10.746093 24 24 24 13.253906 0 24-10.746094 24-24zm0 0"/><path d="m192.917969 216.292969c0 13.253906 10.746093 24 24 24 13.253906 0 24-10.746094 24-24 0-14.144531-13.90625-43.914063-24-63.25-10.097657 19.335937-24 49.105469-24 63.25zm0 0"/><path d="m160.917969 328.292969c0-12.472657-10.816407-37.097657-20.296875-56-1.265625-2.527344-2.511719-4.96875-3.703125-7.25-1.191407 2.28125-2.402344 4.722656-3.703125 7.25-9.480469 18.902343-20.296875 43.527343-20.296875 56 0 13.253906 10.746093 24 24 24 13.253906 0 24-10.746094 24-24zm0 0"/><path d="m368.917969 112.292969c-5.324219.007812-10.632813.542969-15.847657 1.601562-4.332031.871094-8.554687-1.933593-9.425781-6.265625-6.070312-29.832031-32.28125-51.285156-62.726562-51.335937-9.230469 0-18.351563 2.019531-26.71875 5.910156-2.027344.9375-4.347657.984375-6.410157.132813-2.058593-.847657-3.671874-2.519532-4.449218-4.609376-16.832032-45.257812-67.011719-68.46875-112.398438-51.992187-45.382812 16.480469-68.984375 66.476563-52.863281 111.992187.855469 2.40625.511719 5.082032-.929687 7.195313-1.445313 2.109375-3.808594 3.40625-6.367188 3.484375-39.691406.644531-71.363281 33.316406-70.7734375 73.007812.5898435 39.695313 33.2148435 71.410157 72.9101565 70.878907h42.398437c6.777344-14.074219 13.167969-25.410157 14.632813-28 1.539062-2.332031 4.148437-3.738281 6.945312-3.738281 2.792969 0 5.402344 1.40625 6.941407 3.738281 1.464843 2.558593 7.855468 13.894531 14.632812 28h109.648438c6.5-15.046875 13.800781-29.734375 21.871093-44 1.539063-2.332031 4.148438-3.738281 6.945313-3.738281s5.402344 1.40625 6.945312 3.738281c8.058594 14.265625 15.351563 28.953125 21.839844 44h43.199219c44.183593 0 80-35.816407 80-80 0-44.183594-35.816407-80-80-80zm-152 144c-22.082031-.027344-39.972657-17.917969-40-40 0-25.390625 29.671875-78.046875 33.054687-84 1.539063-2.332031 4.148438-3.738281 6.945313-3.738281 2.792969 0 5.402343 1.40625 6.941406 3.738281 3.386719 5.953125 33.058594 58.609375 33.058594 84-.027344 22.082031-17.921875 39.972656-40 40zm0 0"/></svg>
