<svg height="464pt" viewBox="0 0 464.26414 464" width="464pt" xmlns="http://www.w3.org/2000/svg"  fill="#3f2f3a"><path d="m280.265625 40.132812v-32c0-4.417968-3.582031-8-8-8s-8 3.582032-8 8v32c0 4.417969 3.582031 8 8 8s8-3.582031 8-8zm0 0"/><path d="m456.265625 184.132812h-32c-4.417969 0-8 3.582032-8 8 0 4.417969 3.582031 8 8 8h32c4.417969 0 8-3.582031 8-8 0-4.417968-3.582031-8-8-8zm0 0"/><path d="m72.265625 464.132812h296c44.179687 0 80-35.816406 80-80 0-44.183593-35.820313-80-80-80-5.324219.011719-10.632813.546876-15.847656 1.597657-4.335938.875-8.554688-1.929688-9.425781-6.261719-.742188-3.671875-1.8125-7.273438-3.199219-10.753906-1.097657-2.714844-2.375-5.355469-3.824219-7.902344-.257812-.457031-.496094-.929688-.800781-1.382812-1.277344-2.121094-2.675781-4.164063-4.191407-6.121094-.648437-.800782-1.296874-1.671875-1.984374-2.480469-1.351563-1.609375-2.785157-3.144531-4.296876-4.609375-1.007812-.976562-2.0625-1.886719-3.136718-2.789062-.796875-.714844-1.703125-1.386719-2.574219-2.050782-1.773437-1.355468-3.617187-2.617187-5.519531-3.78125-.96875-.59375-1.945313-1.167968-2.953125-1.707031-1.34375-.726563-2.710938-1.421875-4.121094-2.054687-1.796875-.800782-3.628906-1.535157-5.511719-2.167969-.976562-.335938-1.949218-.648438-2.941406-.9375-2.394531-.695313-4.824219-1.25-7.28125-1.664063-.601562-.09375-1.207031-.160156-1.800781-.238281-2.84375-.421875-5.714844-.652344-8.589844-.695313-9.234375.003907-18.355469 2.019532-26.730469 5.910157-2.023437.933593-4.34375.980469-6.402344.128906-2.058593-.847656-3.667968-2.519531-4.445312-4.609375-12.855469-34.421875-45.675781-57.292969-82.421875-57.429688-2.402344 0-4.679687.175782-7 .359376-27.285156 2.089843-52.03125 16.792968-66.910156 39.761718-14.875 22.96875-18.175781 51.566406-8.921875 77.316406.855468 2.414063.507812 5.089844-.9375 7.203126-1.445313 2.113281-3.816406 3.40625-6.375 3.480468-39.429688 1.003906-70.699219 33.5625-70.1132815 73s32.8164065 71.050782 72.2578125 70.878906zm0 0"/><path d="m168.398438 176.476562c1.28125.101563 2.539062.273438 3.800781.414063 1.265625.144531 2.402343.257813 3.585937.441406 1.183594.183594 2.496094.457031 3.742188.6875 1.25.234375 2.351562.425781 3.503906.6875 1.152344.265625 2.402344.625 3.648438.945313 1.25.320312 2.320312.589844 3.464843.9375 1.144531.34375 2.320313.796875 3.480469 1.175781 1.160156.375 2.3125.796875 3.4375 1.199219 1.128906.398437 2.242188.925781 3.363281 1.398437 1.117188.472657 2.253907.921875 3.351563 1.433594 1.09375.511719 2.160156 1.085937 3.199218 1.597656 1.039063.511719 2.191407 1.082031 3.261719 1.664063 1.074219.585937 2.050781 1.21875 3.066407 1.824218 1.015624.609376 2.136718 1.242188 3.199218 1.914063s1.945313 1.34375 2.921875 2.023437c.972657.679688 2.046875 1.382813 3.039063 2.128907.992187.742187 1.832031 1.460937 2.75 2.199219.921875.734374 1.96875 1.542968 2.914062 2.359374.941406.816407 1.71875 1.601563 2.582032 2.398438.863281.800781 1.863281 1.683594 2.761718 2.570312.894532.886719 1.597656 1.703126 2.398438 2.558594.800781.855469 1.746094 1.808594 2.578125 2.753906.832031.941407 1.464843 1.800782 2.199219 2.695313.734374.894531 1.65625 1.953125 2.398437 2.976563.746094 1.023437 1.402344 1.984374 2.097656 2.976562.695313.992188 1.457031 1.992188 2.128907 3.023438.671874 1.03125 1.429687 2.359374 2.144531 3.542968.550781.929688 1.148437 1.832032 1.679687 2.785156 1.199219 2.160157 2.324219 4.371094 3.375 6.632813 11.289063-3.941406 23.339844-5.195313 35.199219-3.664063.800781.085938 1.601563.175782 2.398437.285157 2.738282.410156 5.449219.960937 8.128907 1.648437 1.234375.3125 2.402343.695313 3.632812 1.066406 1.488281.460938 2.957031.972657 4.40625 1.527344 2.542969.933594 5.03125 2.003906 7.457031 3.199219.722657.359375 1.449219.695313 2.160157 1.078125 5.148437 2.75 9.980469 6.0625 14.402343 9.875.503907.4375 1 .886719 1.496094 1.34375 2.097656 1.890625 4.09375 3.898438 5.972656 6.007812.929688 1.03125 1.839844 2.070313 2.714844 3.152344.871094 1.078125 1.703125 2.125 2.503906 3.238282 1.597657 2.183593 3.074219 4.445312 4.429688 6.792968.144531.253906.335938.488282.488281.742188 35.34375-33.917969 44.523438-86.878906 22.664063-130.714844-21.863282-43.835938-69.691406-68.367188-118.046875-60.542969-48.359375 7.824219-86.011719 46.179688-92.9375 94.675781 1.089843 0 2.160156.109376 3.242187.160157 1.207032.054687 2.414063.085937 3.613282.183593zm0 0"/><path d="m165.921875 74.476562-32-32c-2.011719-2.082031-4.984375-2.914062-7.78125-2.183593-2.796875.734375-4.980469 2.917969-5.714844 5.714843-.730469 2.796876.101563 5.773438 2.183594 7.78125l32 32c3.136719 3.03125 8.128906 2.988282 11.214844-.097656 3.085937-3.085937 3.128906-8.078125.097656-11.214844zm0 0"/><path d="m389.921875 85.789062 32-32c2.078125-2.007812 2.910156-4.984374 2.179687-7.78125-.730468-2.796874-2.917968-4.980468-5.714843-5.714843-2.796875-.730469-5.769531.101562-7.777344 2.183593l-32 32c-2.082031 2.007813-2.914063 4.984376-2.183594 7.78125.734375 2.796876 2.917969 4.980469 5.714844 5.710938 2.796875.734375 5.769531-.101562 7.78125-2.179688zm0 0"/></svg>
