<svg height="464pt" viewBox="0 -24 464.04898 464" width="464pt" xmlns="http://www.w3.org/2000/svg"  fill="#3f2f3a"><path d="m464.050781 160.023438c0-4.417969-3.582031-8-8-8h-16c-4.421875 0-8 3.582031-8 8 0 4.417968 3.578125 8 8 8h16c4.417969 0 8-3.582032 8-8zm0 0"/><path d="m280.050781 8.023438v16c0 4.417968 3.578125 8 8 8 4.417969 0 8-3.582032 8-8v-16c0-4.417969-3.582031-8.0000005-8-8.0000005-4.421875 0-8 3.5820315-8 8.0000005zm0 0"/><path d="m405.703125 69.679688 16-16c3.035156-3.136719 2.992187-8.128907-.09375-11.214844-3.085937-3.085938-8.078125-3.128906-11.214844-.097656l-16 16c-2.082031 2.011718-2.914062 4.984374-2.183593 7.78125.734374 2.796874 2.917968 4.980468 5.714843 5.714843 2.796875.730469 5.769531-.101562 7.777344-2.183593zm0 0"/><path d="m225.648438 109.359375c2.273437 2.257813 4.425781 4.613281 6.464843 7.074219.976563 1.160156 1.945313 2.335937 2.863281 3.550781.710938.9375 1.390626 1.878906 2.0625 2.839844 1.019532 1.441406 1.984376 2.914062 2.921876 4.398437.511718.800782 1.039062 1.601563 1.527343 2.457032 1.382813 2.359374 2.695313 4.761718 3.890625 7.199218 19.667969-6.558594 41.140625-5.019531 59.675782 4.273438 18.539062 9.296875 32.613281 25.585937 39.121093 45.273437 3.621094-.421875 7.261719-.632812 10.90625-.632812 3.292969.003906 6.582031.175781 9.855469.519531.320312 0 .632812.113281.953125.144531 2.980469.34375 5.925781.800781 8.796875 1.414063l.800781.210937c2.945313.644531 5.835938 1.429688 8.671875 2.351563.335938.101562.65625.238281.992188.351562 2.753906.925782 5.445312 1.972656 8.082031 3.136719l.445313.175781c4.207031-10.867187 6.363281-22.421875 6.371093-34.074218.011719-42.441407-27.859375-79.855469-68.53125-91.988282-40.675781-12.132812-84.484375 3.898438-107.726562 39.414063.359375.328125.664062.703125 1.015625 1.046875.351562.34375.558594.585937.839844.863281zm0 0"/><path d="m177.480469 409.066406 63.738281-97.042968h-49.167969c-2.464843 0-4.789062-1.132813-6.304687-3.074219-1.515625-1.941407-2.054688-4.472657-1.457032-6.859375l13.511719-54.066406h-48l-26.65625 80h60.90625c2.402344 0 4.675781 1.078124 6.195313 2.941406 1.519531 1.859375 2.125 4.304687 1.644531 6.660156l-2.90625 14.398438zm0 0"/><path d="m312.050781 392.023438c0-11.199219-8.800781-32.277344-17.441406-50.175782l-1.761719-3.605468c-.511718-1.035157-1.007812-2.035157-1.511718-3.035157-1.117188-2.230469-2.222657-4.40625-3.285157-6.398437-1.066406 2.023437-2.167969 4.199218-3.289062 6.398437-.503907 1-1 2-1.511719 3.035157l-1.761719 3.605468c-8.640625 17.898438-17.4375 38.976563-17.4375 50.175782 0 13.257812 10.742188 24 24 24 13.253907 0 24-10.742188 24-24zm0 0"/><path d="m69.289062 352.023438h103.375l1.601563-8h-62.214844c-2.574219 0-4.988281-1.234376-6.492187-3.320313s-1.914063-4.765625-1.101563-7.207031l32-96c1.089844-3.269532 4.148438-5.472656 7.59375-5.472656h64c2.460938 0 4.785157 1.136718 6.300781 3.078124 1.515626 1.9375 2.054688 4.46875 1.457032 6.859376l-13.511719 54.0625h53.753906c2.9375 0 5.644531 1.613281 7.039063 4.203124 1.398437 2.585938 1.261718 5.730469-.351563 8.191407l-28.648437 43.605469h25.160156c6.496094-15.046876 13.796875-29.734376 21.871094-44 1.539062-2.332032 4.148437-3.734376 6.945312-3.734376 2.792969 0 5.402344 1.402344 6.941406 3.734376 8.0625 14.265624 15.351563 28.953124 21.839844 44h38.21875c41.980469.46875 76.417969-33.132813 76.984375-75.109376-.164062-27.085937-14.953125-51.96875-38.664062-65.058593-1.707031-.949219-3.457031-1.832031-5.226563-2.65625l-1.03125-.488281c-1.847656-.796876-3.71875-1.597657-5.601562-2.246094l-.855469-.304688c-1.933594-.660156-3.890625-1.25-5.871094-1.769531l-.910156-.230469c-1.9375-.472656-3.890625-.878906-5.859375-1.207031l-1.351562-.199219c-1.828126-.285156-3.664063-.5-5.503907-.648437-.796875-.058594-1.550781-.082031-2.320312-.113281-1.597657-.078126-3.199219-.152344-4.757813-.136719-1.128906 0-2.265625.105469-3.394531.160156-1.125.058594-2.460937.105469-3.695313.226563-2.363281.238281-4.707031.582031-7.03125 1.03125h-.152343c-.265625.015624-.53125.015624-.800781 0-4.039063.429687-7.75-2.265626-8.589844-6.242188-6.207032-28.273438-31.355469-48.351562-60.304688-48.144531-8.882812.011719-17.660156 1.917969-25.742187 5.601562-1.339844.753907-2.925781.921875-4.394531.472657-.667969-.039063-1.324219-.167969-1.960938-.375-2.039062-.84375-3.636719-2.492188-4.421875-4.554688-1.179687-3.03125-2.535156-5.992188-4.0625-8.863281-.265625-.511719-.523437-1.03125-.800781-1.542969-1.492188-2.691406-3.132813-5.296875-4.914063-7.808594-.40625-.582031-.839843-1.152344-1.269531-1.71875-1.800781-2.425781-3.726562-4.753906-5.769531-6.976562-.511719-.535156-1.054688-1.03125-1.601563-1.601563-1.671875-1.703125-3.429687-3.320312-5.246094-4.886719-.082031-.074218-.175781-.128906-.257812-.199218-15.476562-13.152344-35.121094-20.382813-55.429688-20.410156-46.191406-.5-84.078124 36.476562-84.695312 82.664062.023438 9.417969 1.699219 18.761719 4.949219 27.601562.882812 2.414063.546875 5.105469-.894531 7.230469-1.445313 2.128907-3.824219 3.429688-6.390626 3.503907-24.296874.105468-46.667968 13.253906-58.570312 34.4375-11.902344 21.179687-11.507812 47.125 1.039062 67.933593 12.546876 20.808594 35.304688 33.269531 59.59375 32.628907zm0 0"/></svg>
