<svg height="448pt" viewBox="0 -32 448.91733 448" width="448pt" xmlns="http://www.w3.org/2000/svg"  fill="#3f2f3a"><path d="m96.917969 336.292969c0 4.417969 3.582031 8 8 8h20.6875l-18.34375 18.34375c-2.078125 2.007812-2.914063 4.984375-2.183594 7.78125.734375 2.796875 2.917969 4.980469 5.714844 5.710937 2.796875.734375 5.773437-.101562 7.78125-2.179687l18.34375-18.34375v20.6875c0 4.417969 3.582031 8 8 8s8-3.582031 8-8v-20.6875l18.34375 18.34375c3.136719 3.03125 8.128906 2.988281 11.214843-.097657 3.085938-3.085937 3.128907-8.074218.097657-11.214843l-18.34375-18.34375h20.6875c4.417969 0 8-3.582031 8-8s-3.582031-8-8-8h-20.6875l18.34375-18.34375c3.03125-3.140625 2.988281-8.128907-.097657-11.214844-3.085937-3.085937-8.078124-3.128906-11.214843-.097656l-18.34375 18.34375v-20.6875c0-4.417969-3.582031-8-8-8s-8 3.582031-8 8v20.6875l-18.34375-18.34375c-3.140625-3.03125-8.128907-2.988281-11.214844.097656s-3.128906 8.074219-.097656 11.214844l18.34375 18.34375h-20.6875c-4.417969 0-8 3.582031-8 8zm0 0"/><path d="m368.917969 112.292969c-5.324219.007812-10.632813.542969-15.847657 1.601562-4.332031.871094-8.554687-1.933593-9.425781-6.265625-6.070312-29.832031-32.28125-51.285156-62.726562-51.335937-9.230469 0-18.351563 2.019531-26.71875 5.910156-2.027344.9375-4.347657.984375-6.410157.132813-2.058593-.847657-3.671874-2.519532-4.449218-4.609376-16.832032-45.257812-67.011719-68.46875-112.398438-51.992187-45.382812 16.480469-68.984375 66.476563-52.863281 111.992187.855469 2.40625.511719 5.082032-.929687 7.195313-1.445313 2.109375-3.808594 3.40625-6.367188 3.484375-39.691406.644531-71.363281 33.316406-70.7734375 73.007812.5898435 39.695313 33.2148435 71.410157 72.9101565 70.878907h296c44.183593 0 80-35.816407 80-80 0-44.183594-35.816407-80-80-80zm-104 104h-20.6875l18.34375 18.34375c2.078125 2.007812 2.914062 4.984375 2.179687 7.78125-.730468 2.796875-2.914062 4.980469-5.710937 5.710937-2.796875.734375-5.773438-.101562-7.78125-2.179687l-18.34375-18.34375v20.6875c0 4.417969-3.582031 8-8 8s-8-3.582031-8-8v-20.6875l-18.34375 18.34375c-3.140625 3.03125-8.128907 2.988281-11.214844-.097657-3.085937-3.085937-3.128906-8.074218-.097656-11.214843l18.34375-18.34375h-20.6875c-4.417969 0-8-3.582031-8-8s3.582031-8 8-8h20.6875l-18.34375-18.34375c-3.03125-3.140625-2.988281-8.128907.097656-11.214844s8.074219-3.128906 11.214844-.097656l18.34375 18.34375v-20.6875c0-4.417969 3.582031-8 8-8s8 3.582031 8 8v20.6875l18.34375-18.34375c3.136719-3.03125 8.128906-2.988281 11.214843.097656 3.085938 3.085937 3.128907 8.074219.097657 11.214844l-18.34375 18.34375h20.6875c4.417969 0 8 3.582031 8 8s-3.582031 8-8 8zm0 0"/><path d="m256.917969 336.292969c0 4.417969 3.582031 8 8 8h20.6875l-18.34375 18.34375c-2.078125 2.007812-2.914063 4.984375-2.183594 7.78125.734375 2.796875 2.917969 4.980469 5.714844 5.710937 2.796875.734375 5.773437-.101562 7.78125-2.179687l18.34375-18.34375v20.6875c0 4.417969 3.582031 8 8 8s8-3.582031 8-8v-20.6875l18.34375 18.34375c3.136719 3.03125 8.128906 2.988281 11.214843-.097657 3.085938-3.085937 3.128907-8.074218.097657-11.214843l-18.34375-18.34375h20.6875c4.417969 0 8-3.582031 8-8s-3.582031-8-8-8h-20.6875l18.34375-18.34375c3.03125-3.140625 2.988281-8.128907-.097657-11.214844-3.085937-3.085937-8.078124-3.128906-11.214843-.097656l-18.34375 18.34375v-20.6875c0-4.417969-3.582031-8-8-8s-8 3.582031-8 8v20.6875l-18.34375-18.34375c-3.140625-3.03125-8.128907-2.988281-11.214844.097656s-3.128906 8.074219-.097656 11.214844l18.34375 18.34375h-20.6875c-4.417969 0-8 3.582031-8 8zm0 0"/></svg>
