<svg height="448pt" viewBox="0 -88 448.97946 448" width="448pt" xmlns="http://www.w3.org/2000/svg" fill="#3f2f3a"><path d="m72.980469 272.964844h296c44.183593 0 80-35.820313 80-80 0-44.183594-35.816407-80-80-80-5.324219.007812-10.632813.546875-15.847657 1.597656-4.332031.875-8.554687-1.929688-9.425781-6.261719-6.074219-29.832031-32.285156-51.285156-62.726562-51.335937-9.234375.003906-18.355469 2.019531-26.730469 5.910156-2.023438.933594-4.34375.980469-6.402344.128906-2.058594-.851562-3.667968-2.519531-4.445312-4.609375-16.566406-45.632812-66.992188-69.195312-112.625-52.628906-45.636719 16.570313-69.199219 66.996094-52.628906 112.628906.859374 2.414063.511718 5.089844-.9375 7.203125-1.445313 2.113282-3.816407 3.40625-6.375 3.476563-39.714844.617187-71.417969 33.300781-70.8281255 73.015625.5937495 39.71875 33.2539065 71.441406 72.9726565 70.875zm0 0"/></svg>
