<svg height="440pt" viewBox="-84 0 440 440.6" width="440pt" xmlns="http://www.w3.org/2000/svg"  ><path d="m104.300781 280.601562c0-8.839843-3.582031-16-8-16s-8 7.160157-8 16c0 8.835938 3.582031 16 8 16s8-7.164062 8-16zm0 0"/><path d="m184.300781 344.601562c0-8.839843-3.582031-16-8-16s-8 7.160157-8 16c0 8.835938 3.582031 16 8 16s8-7.164062 8-16zm0 0"/><path d="m136.300781 440.601562c74.992188 0 136-63.3125 136-141.144531 0-69.058593-107.59375-252.289062-136-299.457031-28.410156 47.199219-136 230.398438-136 299.457031 0 77.832031 61.007813 141.144531 136 141.144531zm64-96c0 17.941407-10.542969 32-24 32s-24-14.058593-24-32c0-17.945312 10.542969-32 24-32s24 14.054688 24 32zm-30.511719-92.648437c2.566407-3.597656 7.5625-4.433594 11.160157-1.863281 3.59375 2.566406 4.429687 7.5625 1.863281 11.15625l-80 112c-2.566406 3.597656-7.5625 4.433594-11.160156 1.867187-3.597656-2.566406-4.429688-7.566406-1.863282-11.160156zm-73.488281-3.351563c13.457031 0 24 14.054688 24 32 0 17.941407-10.542969 32-24 32s-24-14.058593-24-32c0-17.945312 10.542969-32 24-32zm0 0"/></svg>
