<svg height="464pt" viewBox="-144 0 464 464" width="464pt" xmlns="http://www.w3.org/2000/svg"  ><path d="m56 464c30.929688 0 56-25.070312 56-56 0-18.886719-8.890625-36.667969-24-48v-328c0-17.671875-14.328125-32-32-32s-32 14.328125-32 32v328c-15.109375 11.332031-24 29.113281-24 48 0 30.929688 25.070312 56 56 56zm-8-86.984375v-185.015625c0-4.417969 3.582031-8 8-8s8 3.582031 8 8v185.015625c14.175781 3.050781 24.222656 15.6875 24 30.183594 0 17.675781-14.328125 32-32 32s-32-14.324219-32-32c-.222656-14.496094 9.824219-27.132813 24-30.183594zm0 0"/><path d="m168 320h-48c-4.417969 0-8 3.582031-8 8s3.582031 8 8 8h48c4.417969 0 8-3.582031 8-8s-3.582031-8-8-8zm0 0"/><path d="m120 304h32c4.417969 0 8-3.582031 8-8s-3.582031-8-8-8h-32c-4.417969 0-8 3.582031-8 8s3.582031 8 8 8zm0 0"/><path d="m168 256h-48c-4.417969 0-8 3.582031-8 8s3.582031 8 8 8h48c4.417969 0 8-3.582031 8-8s-3.582031-8-8-8zm0 0"/><path d="m120 240h32c4.417969 0 8-3.582031 8-8s-3.582031-8-8-8h-32c-4.417969 0-8 3.582031-8 8s3.582031 8 8 8zm0 0"/><path d="m168 192h-48c-4.417969 0-8 3.582031-8 8s3.582031 8 8 8h48c4.417969 0 8-3.582031 8-8s-3.582031-8-8-8zm0 0"/><path d="m120 176h32c4.417969 0 8-3.582031 8-8s-3.582031-8-8-8h-32c-4.417969 0-8 3.582031-8 8s3.582031 8 8 8zm0 0"/><path d="m168 128h-48c-4.417969 0-8 3.582031-8 8s3.582031 8 8 8h48c4.417969 0 8-3.582031 8-8s-3.582031-8-8-8zm0 0"/><path d="m120 112h32c4.417969 0 8-3.582031 8-8s-3.582031-8-8-8h-32c-4.417969 0-8 3.582031-8 8s3.582031 8 8 8zm0 0"/><path d="m120 80h48c4.417969 0 8-3.582031 8-8s-3.582031-8-8-8h-48c-4.417969 0-8 3.582031-8 8s3.582031 8 8 8zm0 0"/></svg>
