<svg height="448pt" viewBox="0 -48 448.00921 448" width="448pt" xmlns="http://www.w3.org/2000/svg"  fill="#3f2f3a"><path d="m57.046875 154.089844c.304687-2.265625.585937-4.535156 1.03125-6.753906.28125-1.382813.691406-2.710938 1.027344-4.078126.46875-1.921874.902343-3.863281 1.488281-5.753906.429688-1.421875.988281-2.789062 1.484375-4.183594.570313-1.597656 1.066406-3.199218 1.707031-4.800781-21.773437 2.449219-41.242187 14.703125-52.859375 33.277344-11.617187 18.578125-14.117187 41.445313-6.789062 62.09375 13.847656-16.78125 33.457031-27.789063 54.992187-30.882813-2.066406-8.175781-3.113281-16.574218-3.121094-25.007812 0-3.535156.183594-7.03125.527344-10.480469.121094-1.167969.359375-2.320312.511719-3.429687zm0 0"/><path d="m368.007812 112c-5.324218.007812-10.632812.542969-15.847656 1.601562-4.332031.875-8.550781-1.933593-9.425781-6.265624-6.070313-29.832032-32.28125-51.28125-62.726563-51.335938-9.230468.003906-18.351562 2.019531-26.71875 5.914062-2.023437.933594-4.347656.980469-6.410156.132813-2.058594-.851563-3.671875-2.523437-4.445312-4.613281-14.785156-39.953125-56.078125-63.570313-98.007813-56.046875-41.933593 7.519531-72.441406 44.011719-72.417969 86.613281.003907 7.011719.863282 13.996094 2.550782 20.800781.441406-.632812.976562-1.191406 1.425781-1.808593 1.664063-2.285157 3.398437-4.519532 5.238281-6.664063.855469-.992187 1.753906-1.941406 2.648438-2.910156 1.71875-1.855469 3.503906-3.648438 5.359375-5.375.976562-.90625 1.9375-1.808594 2.945312-2.683594 2.070313-1.78125 4.230469-3.46875 6.449219-5.09375.847656-.625 1.65625-1.296875 2.527344-1.898437 3.109375-2.152344 6.335937-4.132813 9.664062-5.933594.589844-.320313 1.222656-.578125 1.824219-.878906 2.785156-1.433594 5.597656-2.761719 8.550781-3.945313 1.191406-.480469 2.402344-.886719 3.625-1.320313 2.449219-.886718 4.933594-1.695312 7.464844-2.398437 1.335938-.371094 2.671875-.722656 4-1.035156 2.628906-.613281 5.300781-1.101563 8-1.519531 1.230469-.183594 2.398438-.414063 3.6875-.558594 44.613281-5.417969 87.597656 18.667968 106.269531 59.542968 8.289063-2.863281 17-4.324218 25.769531-4.320312 35.179688.074219 66.210938 23.054688 76.535157 56.6875 3.804687-.453125 7.632812-.683594 11.464843-.6875 3.550782.011719 7.097657.21875 10.625.625 1.207032.128906 2.398438.367188 3.574219.542969 2.257813.335937 4.488281.695312 6.6875 1.191406 1.457031.320313 2.882813.722656 4.3125 1.113281 1.855469.503906 3.6875 1.039063 5.496094 1.648438 1.570313.535156 3.117187 1.101562 4.640625 1.703125 1.601562.625 3.121094 1.3125 4.65625 2.015625 1.535156.707031 3.199219 1.480468 4.800781 2.3125 1.351563.710937 2.640625 1.503906 3.949219 2.28125 1.601562.960937 3.257812 1.878906 4.800781 2.925781 1.160157.800781 2.242188 1.671875 3.359375 2.503906 2.613282 1.925781 5.125 3.984375 7.523438 6.167969 1.40625 1.28125 2.8125 2.546875 4.140625 3.90625.96875.992188 1.882812 2.046875 2.808593 3.085938 1.488282 1.65625 2.921876 3.355468 4.296876 5.113281.351562.449219.761718.847656 1.105468 1.3125 2.148438-7.289063 3.234375-14.847657 3.222656-22.449219-.046874-44.160156-35.835937-79.949219-80-80zm0 0"/><path d="m439.097656 235.472656c-1.636718-3.171875-3.476562-6.230468-5.515625-9.160156-.222656-.320312-.46875-.625-.703125-.933594-1.675781-2.328125-3.476562-4.5625-5.398437-6.691406-.601563-.679688-1.199219-1.359375-1.824219-2.015625-2.117188-2.230469-4.355469-4.335937-6.710938-6.3125-.648437-.527344-1.335937-.992187-1.992187-1.503906-1.875-1.445313-3.792969-2.824219-5.777344-4.101563-1.039062-.671875-2.105469-1.3125-3.199219-1.929687-1.914062-1.109375-3.886718-2.136719-5.898437-3.085938-.871094-.410156-1.710937-.875-2.605469-1.257812-2.84375-1.214844-5.753906-2.261719-8.722656-3.136719-.894531-.261719-1.820312-.460938-2.726562-.703125-2.363282-.609375-4.761719-1.113281-7.199219-1.511719-.960938-.152344-1.914063-.320312-2.878907-.441406-8.597656-1.15625-17.328124-.851562-25.824218.898438-4.332032.871093-8.554688-1.933594-9.425782-6.265626-6.074218-29.808593-32.261718-51.25-62.6875-51.320312-9.230468.003906-18.351562 2.019531-26.71875 5.914062-1.207031.523438-2.523437.734376-3.832031.613282-3.191406-.023438-6.011719-2.070313-7.023437-5.09375-16.832032-45.257813-67.015625-68.464844-112.398438-51.988282-45.386718 16.476563-68.988281 66.476563-52.867187 111.988282.859375 2.410156.511719 5.082031-.929688 7.195312-1.445312 2.113282-3.808593 3.40625-6.367187 3.484375-2.835938.105469-5.664063.371094-8.472656.800781-.726563.109376-1.4375.261719-2.160157.390626-2.207031.390624-4.382812.863281-6.519531 1.457031-.574219.160156-1.144531.3125-1.703125.480469-17.417969 5.296874-32.171875 17.023437-41.265625 32.800781-.160156.238281-.335938.46875-.527344.6875-12.492187 22.300781-12.234375 49.550781.675782 71.613281 12.914062 22.058594 36.546874 35.628906 62.109374 35.65625h296c27.894532.050781 53.789063-14.457031 68.316407-38.269531 14.527343-23.8125 15.578125-53.476563 2.773437-78.257813zm0 0"/></svg>
