<svg height="448pt" viewBox="-3 0 447 448" width="448pt" xmlns="http://www.w3.org/2000/svg"  ><path d="m24.5 448v-368h6.113281l121.886719 60.945312v-17.890624l-102.113281-51.054688 102.113281-51.054688v-17.890624l-121.886719 60.945312h-6.113281v-16h-16v16h-8v16h8v368zm0 0"/><path d="m5.964844 31.488281c.8125.308594 1.667968.480469 2.535156.511719h16c.867188-.03125 1.722656-.203125 2.535156-.511719.382813-.136719.753906-.296875 1.113282-.480469 2.644531-1.339843 4.324218-4.042968 4.351562-7.007812v-16c0-4.417969-3.582031-8-8-8h-16c-4.417969 0-8 3.582031-8 8v16c.027344 2.964844 1.707031 5.667969 4.351562 7.007812.359376.183594.730469.34375 1.113282.480469zm0 0"/><path d="m440.5 159.65625v-111.953125c-16.144531-1.308594-31.570312-7.226563-44.449219-17.046875-25.761719-19.542969-61.382812-19.542969-87.144531 0-15.027344 11.527344-33.507812 17.640625-52.445312 17.34375-18.929688.296875-37.40625-5.816406-52.425782-17.34375-1.335937-.886719-2.648437-1.769531-4-2.625-.390625-.253906-.800781-.496094-1.191406-.75-.9375-.601562-1.878906-1.203125-2.839844-1.777344-.519531-.3125-1.054687-.609375-1.601562-.910156-.847656-.488281-1.695313-.96875-2.566406-1.425781-.582032-.3125-1.191407-.601563-1.792969-.894531-.855469-.425782-1.726563-.800782-2.613281-1.21875-.640626-.269532-1.296876-.535157-1.960938-.796876-.914062-.355468-1.863281-.691406-2.824219-1.011718-.695312-.230469-1.402343-.453125-2.128906-.660156-1.015625-.296876-2.09375-.554688-3.199219-.800782-.753906-.175781-1.488281-.351562-2.273437-.503906-1.207031-.226562-2.496094-.402344-3.789063-.570312-.761718-.09375-1.488281-.222657-2.289062-.296876h-.527344v111.882813c.542969.039063 1.015625.136719 1.542969.183594 1.167969.113281 2.273437.253906 3.382812.40625 1.511719.203125 2.992188.417969 4.410157.679687 1.054687.203125 2.085937.425782 3.09375.65625 1.335937.304688 2.625.632813 3.878906.992188.953125.273437 1.898437.554687 2.808594.847656 1.203124.394531 2.351562.800781 3.488281 1.257812.847656.320313 1.6875.648438 2.503906.992188 1.113281.480469 2.175781.976562 3.199219 1.488281.738281.351563 1.488281.695313 2.195312 1.0625 1.078125.5625 2.101563 1.136719 3.117188 1.722657.617187.351562 1.25.6875 1.839844 1.039062 1.121093.671875 2.203124 1.351562 3.273437 2.03125.441406.28125.914063.558594 1.34375.847656 1.472656.953125 2.90625 1.902344 4.3125 2.839844 25.75 19.542969 61.363281 19.542969 87.113281 0 31.144532-23.117188 73.75-23.117188 104.894532 0 10.289062 8.0625 22.65625 13.027344 35.664062 14.3125zm0 0"/></svg>
